<svg xmlns="http://www.w3.org/2000/svg" width="18" height="18" viewBox="280 340 640 640">
  <!--
    The hand-drawn outline is a thin filled shape (~8-15 viewBox units thick)
    which would render anemically at 18pt. Adding stroke on top of fill
    thickens the silhouette so it reads as a confident line at menu-bar size.
    stroke-width=30 in 640-unit viewBox ≈ 0.85pt of additional thickness at
    18pt render (so the visible line ends up ~1.3pt total — appropriate for
    template-rendered menu-bar icons).
  -->
  <path d="M882.245,754.67c-10.767,57.166-46.523,107.091-93.429,140.661c-53.591,38.354-119.991,54.114-185.214,53.901c-66.681-0.218-135.785-15.054-193.75-48.818c-52.624-30.653-96.457-79.275-113.262-138.649c-16.233-57.351-4.214-123.796,38.289-167.077c22.803-23.221,51.553-39.402,75.026-61.867c24.006-22.975,38.68-52.769,56.954-80.053c17.657-26.362,40.603-47.426,68.444-62.683c25.91-14.199,54.027-22.459,82.971-27.728c20.733-3.774,41.512-6.101,62.621-5.097c30.282,1.44,61.918,8.23,89.808,20.191c49.985,21.436,86.187,67.544,95.856,120.964c2.532,13.99,2.263,27.828,2.393,41.969c0.166,18.074,1.882,36.093,4.139,54.014c4.511,35.81,11.298,71.448,12.498,107.597C886.174,719.625,885.366,737.292,882.245,754.67c-1.356,7.551,10.206,10.791,11.571,3.19c13.496-75.147-13.768-148.913-12.858-223.995c0.347-28.664-4.693-56.367-17.033-82.38c-12.015-25.327-30.283-47.333-52.599-64.229c-25.268-19.132-55.48-29.481-86.2-36.083c-26.304-5.653-53.271-7.651-80.06-4.863c-55.992,5.829-112.628,23.018-155.261,61.195c-25.546,22.876-41.199,52.814-59.654,81.162c-9.321,14.319-19.743,27.562-32.402,39.091c-12.676,11.544-26.668,21.48-40.266,31.881c-13.175,10.078-26.169,20.558-37.136,33.074c-10.128,11.558-18.607,24.531-25.124,38.447c-13.239,28.269-19.083,59.849-17.348,90.998c3.517,63.117,38.268,120.888,86.168,160.807c53.152,44.296,120.901,66.886,188.851,75.086c69.585,8.396,142.48,0.789,205.794-30.628c53.767-26.679,99.228-71.985,122.523-127.631c5.658-13.515,9.894-27.535,12.606-41.934C895.238,750.313,883.675,747.079,882.245,754.67z" fill="#000" stroke="#000" stroke-width="30" stroke-linejoin="round" stroke-linecap="round"/>
</svg>
